<?xml version="1.0" encoding="UTF-8" standalone="no"?>
<!DOCTYPE svg PUBLIC "-//W3C//DTD SVG 1.1//EN" "http://www.w3.org/Graphics/SVG/1.1/DTD/svg11.dtd">
<svg width="100%" height="100%" viewBox="0 0 48 48" version="1.1" xmlns="http://www.w3.org/2000/svg" xmlns:xlink="http://www.w3.org/1999/xlink" xml:space="preserve" xmlns:serif="http://www.serif.com/" style="fill-rule:evenodd;clip-rule:evenodd;stroke-linejoin:round;stroke-miterlimit:1.41421;">
    <g transform="matrix(1,0,0,1,-431.75,-143.104)">
        <g id="_48" serif:id="48" transform="matrix(0.375,0,0,0.383186,212.287,27.2458)">
            <path d="M589.657,366.063C589.804,374.481 591.674,382.871 595.292,390.493C595.649,391.245 596.023,391.987 596.412,392.721C598.114,395.823 600.072,398.797 602.258,401.599C610.273,411.621 621.573,419.01 634.069,422.451L634.069,423.449L634.081,423.453L634.081,427.498C611.326,421.8 591.123,403.817 586.004,377.577C585.681,375.922 585.424,374.252 585.234,372.574L588.131,372.574L588.129,372.556C587.514,367.525 587.556,362.429 588.208,357.41L585.289,357.41C588.043,334.362 602.91,312.36 628.94,303.813C630.634,303.257 632.349,302.77 634.081,302.354L634.081,306.453L634.069,306.456L634.069,307.333C618.19,311.697 604.114,322.571 596.427,337.131C592.047,345.424 589.779,354.779 589.654,364.168L608,364.168L608,353.827L618.392,342.837L628.785,353.827L628.785,358.889L643.234,350L645.234,338L653.234,338L655.626,350L670,358.981L670,353.827L680.392,342.837L690.785,353.827L690.785,364.168L708.932,364.168L708.928,363.985C708.57,348.457 702.087,333.084 690.969,322.228C683.608,315.041 674.348,309.89 664.398,307.251L664.398,305.355L664.409,305.358L664.409,302.457C688.649,308.491 709.958,328.491 713.234,357.41L710.32,357.41C710.925,362.439 710.927,367.543 710.321,372.574L713.214,372.574C710.088,397.991 691.132,421.06 664.409,427.619L664.409,424.401L664.398,424.404L664.398,422.698C686.741,416.687 704.958,396.753 708.342,373.662C708.711,371.143 708.908,368.604 708.939,366.063L690.785,366.063L690.785,375.809L680.392,386.8L670,375.809L670,370.992L649.234,376.986L628.785,371.083L628.785,375.809L618.392,386.8L608,375.809L608,366.063L589.657,366.063Z" style="fill:rgb(13,13,13);"/>
        </g>
    </g>
</svg>
